<svg id="b273362e-9a62-4e7c-a38b-61152dba01bb" data-name="Layer 1" xmlns="http://www.w3.org/2000/svg" viewBox="0 0 120.58 20"><path d="M219.6,289.91a3.44,3.44,0,0,1-2,.66c-1.77,0-3.3-1.83-4.17-2.73l-4.25-4.57v7h-.65v-19.7h.65v12.37l6.78-6.16h1l-7,6.35,4,4.33c.87,1,2.28,2.45,3.62,2.45a2.87,2.87,0,0,0,1.69-.57Z" transform="translate(-208.54 -270.57)" fill="#1b154b"/><path d="M222.49,271.09c.38,0,.62.27.62.76s-.24.76-.62.76-.63-.27-.63-.76S222.1,271.09,222.49,271.09Zm-.3,5.69v13.49h.65V276.78Z" transform="translate(-208.54 -270.57)" fill="#1b154b"/><path d="M228.51,290.27h-.66V276.78h.66v3.3a5.74,5.74,0,0,1,5.15-3.6c2.75,0,5.8,1.23,5.8,6v7.82h-.65v-7.82c0-4.28-2.7-5.37-5.15-5.37-1.69,0-5,1.31-5.15,5.91Z" transform="translate(-208.54 -270.57)" fill="#1b154b"/><path d="M250.05,276.48a7.16,7.16,0,0,1,7.11,7.09,7.09,7.09,0,1,1-7.11-7.09Zm0,13.49a6.44,6.44,0,0,0,6.43-6.4,6.41,6.41,0,1,0-12.81,0A6.39,6.39,0,0,0,250.05,290Z" transform="translate(-208.54 -270.57)" fill="#1b154b"/><path d="M257.09,282.65a4.62,4.62,0,0,0,2.15,2.6c1.68,1,3.76.86,4.74-.77.68-1.14.53-2.41-.69-3.78h0l-1.54-1.65c-1-1.16-1.89-2.74-.88-4.44a4,4,0,0,1,7.28,2.64l-.61-.47a3.34,3.34,0,0,0-1.59-2.7,3.18,3.18,0,0,0-4.5.87c-.84,1.39-.11,2.73.77,3.7l1.51,1.64c1.45,1.64,1.62,3.15.8,4.52-1.16,1.94-3.63,2.13-5.62.95a5.44,5.44,0,0,1-2.3-2.54" transform="translate(-208.54 -270.57)" fill="#1b154b"/><path d="M276.72,286.78a2.09,2.09,0,0,1,.14.68,3,3,0,0,1-3.3,3.11c-1.69,0-3.52-.66-3.52-4.39v-8.8h-2.48v-.6H270l.19-4.55h.47v4.55h4.55v.6H270.7v8.8c0,3.22,1.5,3.79,2.86,3.79a2.46,2.46,0,0,0,2.64-2.51,2,2,0,0,0-.11-.68Z" transform="translate(-208.54 -270.57)" fill="#1b154b"/><path d="M291.38,288.5a7.56,7.56,0,0,1-5.42,2.07c-4.53,0-7.5-3.16-7.5-7a7.06,7.06,0,0,1,7.22-7.09c3.25,0,6.33,1.91,6.52,6.38h-13a5.94,5.94,0,0,0,0,.73c0,3.49,2.7,6.38,6.82,6.38a6.88,6.88,0,0,0,5-1.94Zm-12.13-6.19h12.24a5.51,5.51,0,0,0-5.81-5.23A6.42,6.42,0,0,0,279.25,282.31Z" transform="translate(-208.54 -270.57)" fill="#1b154b"/><path d="M295.85,270.57h.65v19.7h-.65Z" transform="translate(-208.54 -270.57)" fill="#1b154b"/><path d="M312.22,276.78h.66v13.49h-.66V287a5.75,5.75,0,0,1-5.15,3.6c-2.75,0-5.8-1.23-5.8-6v-7.82h.65v7.82c0,4.28,2.7,5.37,5.15,5.37,1.69,0,5-1.31,5.15-5.91Z" transform="translate(-208.54 -270.57)" fill="#1b154b"/><path d="M315.6,290.27l6.32-7.25-5.42-6.24h.87l5,5.72,5-5.72h.87L322.79,283l6.32,7.25h-.87l-5.88-6.76-5.89,6.76Z" transform="translate(-208.54 -270.57)" fill="#1b154b"/></svg>