<svg id="b2a2724a-786f-4f96-887e-2637affc0c53" data-name="Layer 1" xmlns="http://www.w3.org/2000/svg" viewBox="0 0 264.34 53.1"><path d="M55.72,24.07A1.32,1.32,0,0,1,57,25.39a1.34,1.34,0,0,1-1.26,1.38,1.35,1.35,0,1,1,0-2.7Zm-.9,12.06H56.5v27H54.82Z" transform="translate(-17.5 -21.13)" fill="#2e314c"/><path d="M69,69.17a10.93,10.93,0,0,1-8,3.37c-6.18,0-11.16-3.9-14.7-8.94L29,39l16.2-17.82H42.94L19.3,47.1v-26H17.5v42h1.8V49.44l8.4-9L44.2,64c3.72,5.28,8.88,10.26,16.62,10.26A12.94,12.94,0,0,0,70.46,70l.46-.51a11.73,11.73,0,0,0,2.26-6.34V41.89a13.83,13.83,0,0,1,10.08-4.62c6.84,0,10,3.53,10,11V63.12H95V47.89c0-8.46-3.78-12.24-11.4-12.24a14.68,14.68,0,0,0-10.38,4.56V36.13H71.44v27a8.63,8.63,0,0,1-2,5.55A5.72,5.72,0,0,1,69,69.17Z" transform="translate(-17.5 -21.13)" fill="#2e314c"/><path d="M116.56,35.59c8.22,0,14,5.94,14,14s-5.76,14-14,14-13.92-5.94-13.92-14S108.4,35.59,116.56,35.59Zm0,26.45c7.14,0,12.18-5.16,12.18-12.42s-5-12.41-12.18-12.41-12.18,5.16-12.18,12.41S109.42,62,116.56,62Z" transform="translate(-17.5 -21.13)" fill="#2e314c"/><path d="M137.26,39c0-4.38,3.6-7.74,10.56-7.74,3.54,0,7.86,1.32,9.72,3.36l-.9,1.26c-2-2-5.82-2.94-9-2.94-5.16,0-8.52,2.4-8.52,6.06,0,9.17,19.5,5.16,19.5,16.37,0,5-4.86,8.16-10.5,8.16-5.28,0-9.6-1.74-11.82-4.32l1.14-1.2c2.34,2.28,5.94,3.84,10.68,3.84,4.14,0,8.64-2.16,8.64-6.54C156.76,45.85,137.26,49.62,137.26,39Z" transform="translate(-17.5 -21.13)" fill="#2e314c"/><path d="M165.88,28.63h1.74v7.5h11.64v1.62H167.62V52.32c0,6.24,2,9.48,7,9.48A7.6,7.6,0,0,0,179,60.36l.72,1.38a9.61,9.61,0,0,1-5.4,1.68c-6,0-8.46-3.66-8.46-10.56Z" transform="translate(-17.5 -21.13)" fill="#2e314c"/><path d="M208.06,59.58a13.26,13.26,0,0,1-9.84,4.08c-8.28,0-14.16-5.52-14.16-14,0-7.86,4.5-14,13.38-14,7,0,12.06,4.8,12.06,12.11a16,16,0,0,1-.12,1.86H185.92C186,57.24,190.84,62,198.28,62a12.52,12.52,0,0,0,9.12-3.72ZM185.8,48.12h22c.06-6.71-4.14-10.91-10.56-10.91C190.24,37.21,186.28,41.89,185.8,48.12Z" transform="translate(-17.5 -21.13)" fill="#2e314c"/><path d="M217.66,21.13h1.74v34c0,4.5,1.08,6.66,4.38,6.66a7.3,7.3,0,0,0,4.2-1.38l.54,1.38a9,9,0,0,1-5.22,1.62c-4,0-5.64-2.28-5.64-7Z" transform="translate(-17.5 -21.13)" fill="#2e314c"/><path d="M259.76,36.13l-1-1.07a2.29,2.29,0,0,0-.71-.57,5.75,5.75,0,0,0-2.63-.57c-3.3,0-5.18,2.4-5.18,5.61V53.06c0,5.91-2.87,8.61-6.93,8.61-4.56,0-7.56-3.17-7.56-8.78V40H234v13.2c0,6.77,4,10.17,9.38,10.17,4.65,0,8.74-2.87,8.74-9.94V39.76c0-2.64,1.49-4.13,3.53-4.13.27,0,.84.08.76.07h.08l1.2.42h0" transform="translate(-17.5 -21.13)" fill="#2e314c"/><path d="M259.76,36.13h0l9.65,12,9.78-12h2L270.62,49.2l11.22,13.92h-2.1L269.42,50.4,259.1,63.12h-2l11.22-13.86L257.67,36.13h0" transform="translate(-17.5 -21.13)" fill="#2e314c"/><path d="M259.76,36.13" transform="translate(-17.5 -21.13)" fill="#2e314c"/></svg>